<svg class="lineElement lineImg" xmlns="http://www.w3.org/2000/svg" viewBox="0 0 28.06 28.06"><defs><style>.cls-ap-1{fill:#0063aa;}.cls-ap-2{fill:#fefefe;}</style></defs><g id="Layer_2"><g id="Layer_1-2"><path class="cls-ap-1" d="M28.06,14A14,14,0,1,1,14,0a14,14,0,0,1,14,14"/><path class="cls-ap-2" d="M14,22.58c.13,0,.26-.14.39-.38l3.76,1.26V22.19l-3.23-2a17.13,17.13,0,0,0,.21-2.57c0-.89,0-2.13,0-3.48l8.67,2.68V15.42l-8.62-5.1c0-2.1.07-3.86.07-4.25,0-1.47-.84-2.25-1.28-2.25s-1.28.78-1.28,2.25c0,.39,0,2.15.07,4.24L4.2,15.42v1.45l8.67-2.68c0,1.35,0,2.59,0,3.48a15.93,15.93,0,0,0,.22,2.57l-3.24,2v1.27l3.76-1.26c.13.24.26.38.39.38"/></g></g></svg>