<svg class="lineElement lineImg" xmlns="http://www.w3.org/2000/svg" viewBox="0 0 212.6 212.59"><defs><style>.cls-bus-1{fill:#009FE3;}.cls-bus-2{fill:#FFFFFF;}</style></defs><g id="Layer_2"><g id="grafika"><path class="cls-bus-1" d="M106.3,0A106.3,106.3,0,1,0,212.6,106.29,106.29,106.29,0,0,0,106.3,0Z"/><path class="cls-bus-2" d="M152.19,45.5H60.34A10.19,10.19,0,0,0,50,55.53V144.4a10.19,10.19,0,0,0,10.34,10H64v9.23a2.49,2.49,0,0,0,2.48,2.47h8.19a2.48,2.48,0,0,0,2.48-2.47v-9.23h58.35v9.23a2.48,2.48,0,0,0,2.48,2.47h8.19a2.48,2.48,0,0,0,2.48-2.47v-9.23h3.59a10.2,10.2,0,0,0,10.36-10V55.53A10.19,10.19,0,0,0,152.19,45.5ZM60.1,57.74a3.3,3.3,0,0,1,3.3-3.29H149a3.29,3.29,0,0,1,3.29,3.29v3.64a3.3,3.3,0,0,1-3.29,3.3H63.4a3.32,3.32,0,0,1-3.3-3.3Zm27.2,89.58H63.48a3.3,3.3,0,0,1-3.3-3.3v-6a3.3,3.3,0,0,1,3.29-3.3H81.56a5.58,5.58,0,0,1,4.66,3l3,6.59A2,2,0,0,1,87.3,147.32ZM67,129.09a6.61,6.61,0,0,1-6.75-6.47V78.37A6.63,6.63,0,0,1,67,71.88h78.57a6.63,6.63,0,0,1,6.75,6.49v44.25a6.61,6.61,0,0,1-6.75,6.47H67ZM152.44,144a3.3,3.3,0,0,1-3.29,3.3H125.32a2,2,0,0,1-1.92-3l3-6.59a5.6,5.6,0,0,1,4.66-3h18.09a3.3,3.3,0,0,1,3.29,3.3Z"/></g></g></svg>