<svg class="lineElement lineImg" xmlns="http://www.w3.org/2000/svg" viewBox="0 0 212.6 212.6"><defs><style>.cls-cl-1{fill:#008849;}.cls-cl-2{fill:#fff;}</style></defs><g id="Layer_2"><g id="grafika"><path class="cls-cl-1" d="M106.29,0A106.3,106.3,0,1,0,212.6,106.3,106.42,106.42,0,0,0,106.29,0Z"/><path id="path4117" class="cls-cl-2" d="M114,77.63a9.92,9.92,0,1,1-9.92,9.91A9.94,9.94,0,0,1,114,77.63h0"/><path id="path4119" class="cls-cl-2" d="M77.23,34.09a9.92,9.92,0,1,1-5.94,12.72,9.93,9.93,0,0,1,5.94-12.72h0"/><path id="path4119-2" class="cls-cl-2" d="M100.72,25.54a9.92,9.92,0,1,1-5.94,12.72,9.94,9.94,0,0,1,5.94-12.72h0"/><path class="cls-cl-2" d="M147.78,144.78l-22.51-1.54,1.86-30.71c.39-6.54-5.77-10.62-11.85-10.71l-1.23,0c-6.68-.11-13.09,4.53-13.09,11.53v28l.1,10.31c0,4.17,4.45,5.76,8.1,5.76h32.42l1.6,33.83a91.25,91.25,0,0,0,8.9-4.46l1.91-35A6.59,6.59,0,0,0,147.78,144.78Z"/><path class="cls-cl-2" d="M92.34,60.22v92.15a12.42,12.42,0,0,0,12.4,12.4h32.83a2.48,2.48,0,1,0,0-5H104.74a7.45,7.45,0,0,1-7.44-7.44V58.42l67-24.4q-2.29-1.86-4.72-3.56l-142.9,52c-.5,1.9-1,3.82-1.33,5.76Z"/></g></g></svg>