<svg class="lineElement lineImg" xmlns="http://www.w3.org/2000/svg" viewBox="0 0 212.6 212.6"><defs><style>.cls-ferry-1{fill:#0d0802;}.cls-ferry-2{fill:#fff;}</style></defs><g id="Layer_2"><g id="grafika"><path class="cls-ferry-1" d="M106.3,0A106.3,106.3,0,1,0,212.6,106.3,106.3,106.3,0,0,0,106.3,0Z"/><path class="cls-ferry-2" d="M77.64,118.62l0-50.68H106c7.29,0,43.62,2,43.62,38.34,0,10-3,20.29-8.49,27.13-6.69,8.36-16.9,12.78-29.53,12.78a69.5,69.5,0,0,1-17.34-2.38,72,72,0,0,0-15.18-2,38.69,38.69,0,0,0-17.12,4.48v14.6a39.89,39.89,0,0,1,17.12-4.23,73.6,73.6,0,0,1,15.59,2A68,68,0,0,0,111.57,161c32.09,0,53.65-22.64,53.65-54.76,0-31.67-23.81-53.13-59.25-53.13h-44v83.19a43.22,43.22,0,0,1,17.12-3.8,71.92,71.92,0,0,1,15.61,2.05A66.58,66.58,0,0,0,111.57,137c12.76,0,27.86-8.95,28.53-30.67H125.55c-.89,9.81-6.11,16.66-14.34,16.66a66.1,66.1,0,0,1-17.37-2.52A77.35,77.35,0,0,0,77.64,118.62Z"/></g></g></svg>