<svg id="Réteg_1" data-name="Réteg 1" xmlns="http://www.w3.org/2000/svg" viewBox="0 0 221.12 38.79">
    <defs>
        <style>.cls-1{fill:#52155a;}</style>
    </defs>
    <path class="cls-0" d="M4.1,38.31H0L5.71,11.55h4.1ZM6.86,4.71a3.21,3.21,0,0,1,.78-2.23,2.6,2.6,0,0,1,2-.87,1.92,1.92,0,0,1,2.15,2.2A3.35,3.35,0,0,1,11,6.08,2.47,2.47,0,0,1,9.11,7a2.25,2.25,0,0,1-1.61-.6A2.21,2.21,0,0,1,6.86,4.71Z"/>
    <path class="cls-0" d="M29.05,38.31l3.62-16.9a22.56,22.56,0,0,0,.48-3.51,3.46,3.46,0,0,0-.86-2.47,3.63,3.63,0,0,0-2.77-.93A7.24,7.24,0,0,0,25.28,16a13,13,0,0,0-3.64,4.17,22.11,22.11,0,0,0-2.38,6.57L16.8,38.31H12.7l5.71-26.76H21.8l-.54,4.95h.25A16.28,16.28,0,0,1,26,12.29a9.08,9.08,0,0,1,4.53-1.23,6.79,6.79,0,0,1,4.89,1.7,6.2,6.2,0,0,1,1.8,4.74,19.74,19.74,0,0,1-.57,4.4L33.2,38.31Z"/>
    <path class="cls-0" d="M55.71,11.11q4.74,0,6.86,4.64h.25a54,54,0,0,1,1.1-6.69L65.82.32h4.05l-8.05,38h-3.4L59,33.2h-.2a18.07,18.07,0,0,1-4.61,4.32,8.57,8.57,0,0,1-4.44,1.27,6.37,6.37,0,0,1-5.3-2.39,10.39,10.39,0,0,1-1.91-6.64,25.35,25.35,0,0,1,1.76-9.57A16,16,0,0,1,49,13.48,10.51,10.51,0,0,1,55.71,11.11ZM51.07,35.4a7.13,7.13,0,0,0,4.74-2.28,16,16,0,0,0,3.87-5.84A19.26,19.26,0,0,0,61.11,20a5.83,5.83,0,0,0-1.32-4.12A5,5,0,0,0,56,14.5a6.51,6.51,0,0,0-4.58,2A14.07,14.07,0,0,0,48,22.18a22.85,22.85,0,0,0-1.29,7.68Q46.7,35.39,51.07,35.4Z"/>
    <path class="cls-0" d="M80,11.55l-3.66,17a18.51,18.51,0,0,0-.44,3.39q0,3.5,3.59,3.49a7.28,7.28,0,0,0,4.22-1.46,13,13,0,0,0,3.66-4.2,22.42,22.42,0,0,0,2.42-6.6l2.44-11.59h4.05L90.62,38.31H87.23l.54-5h-.29a16.2,16.2,0,0,1-4.57,4.25,9.29,9.29,0,0,1-4.49,1.19,6.83,6.83,0,0,1-4.91-1.69,6.37,6.37,0,0,1-1.78-4.85,22.77,22.77,0,0,1,.54-4.2l3.56-16.5Z"/>
    <path class="cls-0" d="M103.32,38.31h-4.1l8.1-38h4.11Z"/>
    <path class="cls-0" d="M126.12,11.06a6.9,6.9,0,0,1,4,1.21,7.79,7.79,0,0,1,2.73,3.48h.27l1.64-4.2h3.1l-5.69,26.76h-3.25l.64-5.11h-.2q-4.37,5.59-9.2,5.59a6.44,6.44,0,0,1-5.33-2.41,10.37,10.37,0,0,1-1.92-6.62,25.09,25.09,0,0,1,1.73-9.42,16.21,16.21,0,0,1,4.78-6.81A10.4,10.4,0,0,1,126.12,11.06ZM121.48,35.4a6.89,6.89,0,0,0,4.72-2.26A16.82,16.82,0,0,0,130,27.26,19.39,19.39,0,0,0,131.47,20a5.7,5.7,0,0,0-1.37-4,4.65,4.65,0,0,0-3.59-1.49,6.72,6.72,0,0,0-4.72,2.1,14.15,14.15,0,0,0-3.43,5.69,22.94,22.94,0,0,0-1.25,7.57A6.43,6.43,0,0,0,118.26,34,4,4,0,0,0,121.48,35.4Zm3.69-28q1.36-1.47,3.06-3.7c1.14-1.49,2-2.71,2.61-3.65h4.63V.51a44.89,44.89,0,0,1-3.41,3.69A37.2,37.2,0,0,1,127.73,8h-2.56Z"/>
    <path class="cls-1"
          d="M164.33,28.39A9.21,9.21,0,0,1,160.85,36q-3.48,2.79-9.68,2.78a22.77,22.77,0,0,1-10.11-2.14v-7a40,40,0,0,0,6.12,2.27,18.06,18.06,0,0,0,4.58.66,6.47,6.47,0,0,0,3.82-.95,3.24,3.24,0,0,0,1.33-2.83,3.15,3.15,0,0,0-.59-1.87,6.49,6.49,0,0,0-1.72-1.57A43.42,43.42,0,0,0,150,22.9,21.7,21.7,0,0,1,145.07,20a11.21,11.21,0,0,1-2.61-3.3,9.29,9.29,0,0,1-1-4.39,9.23,9.23,0,0,1,3.21-7.45q3.21-2.71,8.87-2.71a20.88,20.88,0,0,1,5.31.66,37.28,37.28,0,0,1,5.29,1.85l-2.44,5.89A36.21,36.21,0,0,0,157,8.86a15.12,15.12,0,0,0-3.67-.46,4.88,4.88,0,0,0-3.3,1A3.32,3.32,0,0,0,148.88,12a3.24,3.24,0,0,0,.46,1.75,5.23,5.23,0,0,0,1.48,1.44,45,45,0,0,0,4.79,2.5c3.34,1.6,5.63,3.19,6.87,4.8A9.39,9.39,0,0,1,164.33,28.39Z"/>
    <path class="cls-1"
          d="M181.3,38.79q-12.75,0-12.75-14,0-6.94,3.47-10.63T182,10.5a19,19,0,0,1,8.49,1.85l-2.19,5.77c-1.17-.48-2.27-.86-3.27-1.16a10.27,10.27,0,0,0-3-.46q-5.82,0-5.81,8.26,0,8,5.81,8a13.34,13.34,0,0,0,4-.57,14.38,14.38,0,0,0,3.66-1.79v6.37A12,12,0,0,1,186,38.35,20.13,20.13,0,0,1,181.3,38.79Z"/>
    <path class="cls-1"
          d="M221.12,38.31h-7.45v-16c0-3.94-1.46-5.9-4.39-5.9a5,5,0,0,0-4.52,2.12q-1.39,2.13-1.39,6.88V38.31h-7.45V.32h7.45V8.06c0,.6-.06,2-.17,4.24L203,14.5h.39c1.66-2.67,4.29-4,7.91-4,3.2,0,5.64.86,7.3,2.59s2.49,4.2,2.49,7.42Z"/>
</svg>