<?xml version="1.0" encoding="utf-8"?>
<!-- Generator: Adobe Illustrator 23.0.4, SVG Export Plug-In . SVG Version: 6.00 Build 0)  -->
<svg version="1.1" id="Réteg_2" xmlns="http://www.w3.org/2000/svg" xmlns:xlink="http://www.w3.org/1999/xlink" x="0px" y="0px"
	 viewBox="0 0 500 500" style="enable-background:new 0 0 500 500;" xml:space="preserve">
<style type="text/css">
	.st0{fill:#FFC721;}
	.st1{fill:#234A99;}
</style>
<circle class="st0" cx="250" cy="250" r="250"/>
<path id="path3311" class="st1" d="M253.3,128c-47.6,0-88.9,27.3-109,67.1H52.5l13.3,36.6h66.9h43.4h71.1h0.9v0
	c9.1,0.4,16.4,7.5,17.3,16.4c0.1,0.6,0.1,1.2,0.1,1.8c0,9.8-7.7,17.8-17.4,18.3v0h-0.9h-71.1h-43.4h-52l13.4,36.6h50.2
	c20.1,39.8,61.3,67.1,109,67.1c47.6,0,88.8-27.3,109-67.1h43.6l13.4-36.6H374c0.9-6,1.3-12.1,1.3-18.3c0-6.2-0.4-12.3-1.3-18.3h60.2
	l13.3-36.6h-85.1C342.2,155.3,301,128,253.3,128z M253.3,170.7c43.8,0,79.3,35.5,79.3,79.3s-35.5,79.3-79.3,79.3
	c-22.5,0-42.8-9.4-57.3-24.4h53.6v-0.2c1.2,0.1,2.4,0.2,3.7,0.2c30.3,0,54.9-24.6,54.9-54.9s-24.6-54.9-54.9-54.9
	c-1.2,0-2.4,0-3.7,0.1v-0.1h-53.6C210.5,180,230.8,170.7,253.3,170.7z"/>
</svg>
