<?xml version="1.0" encoding="utf-8"?>
<!-- Generator: Adobe Illustrator 23.0.4, SVG Export Plug-In . SVG Version: 6.00 Build 0)  -->
<svg class="lineElement lineImg" version="1.1" id="Layer_1" xmlns="http://www.w3.org/2000/svg" xmlns:xlink="http://www.w3.org/1999/xlink" x="0px" y="0px"
	 viewBox="0 0 212.6 212.6" style="enable-background:new 0 0 212.6 212.6;" xml:space="preserve">
<style type="text/css">
	.nb-st0{fill:#FFFFFF;}
	.nb-st1{fill:#1E1F1F;}
</style>
<g id="Layer_2_1_">
	<g id="grafika">
		<g>
			<path class="nb-st0" d="M147.6,30.6c0-1.4-0.8-1.7-1.8-0.8l-17,15.7c-1.2,1-2.7,1.6-4.3,1.7H88.1c-1.6-0.1-3.1-0.7-4.3-1.7l-17-15.7
				c-1-0.9-1.8-0.6-1.8,0.8v118.6c-8,1.9-19.5,5.9-29.4,9.8c2.9,3.9,6.2,7.6,9.7,10.9c37-16.7,86.5-16.6,122.4-0.2
				c3.5-3.4,6.7-7.1,9.6-11c-9.7-3.8-19.6-7-29.6-9.6L147.6,30.6L147.6,30.6z M87.2,56.9c7,0,12.7,5.7,12.7,12.7
				s-5.7,12.7-12.7,12.7s-12.7-5.7-12.7-12.7S80.1,56.9,87.2,56.9z M99.9,148.9c0,1.4-1.1,2.5-2.5,2.5H76.9c-1.4,0-2.5-1.1-2.5-2.5
				v-3.2c0-1.4,1.1-2.5,2.5-2.5h20.5c1.4,0,2.5,1.1,2.5,2.5V148.9z M107.5,92.8c-0.1,0.4-0.4,0.7-0.8,0.8c-0.7,0.2-1.4-0.1-1.7-0.8
				L99.9,84c-0.7-1.1-0.1-2.1,1.2-2.1h10.1c1.4,0,1.9,1,1.2,2.1L107.5,92.8z M138,148.9c0,1.4-1.1,2.5-2.5,2.5H115
				c-1.4,0-2.5-1.1-2.5-2.5v-3.2c0-1.4,1.1-2.5,2.5-2.5h20.5c1.4,0,2.5,1.1,2.5,2.5V148.9z M125.3,82.4c-7,0-12.7-5.7-12.7-12.7l0,0
				c0-7,5.7-12.7,12.7-12.7S138,62.7,138,69.7C138,76.7,132.3,82.4,125.3,82.4z"/>
			<path class="nb-st1" d="M106.3,0C47.6,0,0,47.6,0,106.3s47.6,106.3,106.3,106.3S212.6,165,212.6,106.3S165,0,106.3,0z M167.6,169.8
				c-35.9-16.4-85.4-16.5-122.4,0.2c-3.5-3.4-6.8-7-9.7-10.9c9.9-3.9,21.4-7.9,29.4-9.8V30.6c0-1.4,0.8-1.7,1.8-0.8l17,15.7
				c1.2,1,2.7,1.6,4.3,1.7h36.4c1.6-0.1,3.1-0.7,4.3-1.7l17-15.7c1-0.9,1.8-0.6,1.8,0.8v118.6c10.1,2.6,20,5.8,29.6,9.6
				C174.3,162.7,171.1,166.4,167.6,169.8z"/>
			<path class="nb-st1" d="M97.4,143.2H76.9c-1.4,0-2.5,1.1-2.5,2.5v3.2c0,1.4,1.1,2.5,2.5,2.5h20.5c1.4,0,2.5-1.1,2.5-2.5v-3.2
				C99.9,144.4,98.8,143.2,97.4,143.2z"/>
			<path class="nb-st1" d="M87.2,82.4c7,0,12.7-5.7,12.7-12.7S94.2,57,87.2,57s-12.7,5.7-12.7,12.7C74.5,76.7,80.1,82.4,87.2,82.4z"/>
			<path class="nb-st1" d="M125.3,56.9c-7,0-12.7,5.7-12.7,12.7l0,0c0,7,5.7,12.7,12.7,12.7S138,76.6,138,69.6
				C138.1,62.6,132.4,56.9,125.3,56.9z"/>
			<path class="nb-st1" d="M111.3,81.9h-10.1c-1.4,0-1.9,1-1.2,2.1l5.1,8.8c0.2,0.7,1,1.1,1.7,0.8c0.4-0.1,0.7-0.4,0.8-0.8l5.1-8.8
				C113.2,82.8,112.7,81.9,111.3,81.9z"/>
			<path class="nb-st1" d="M135.6,143.2h-20.5c-1.4,0-2.5,1.1-2.5,2.5v3.2c0,1.4,1.1,2.5,2.5,2.5h20.5c1.4,0,2.5-1.1,2.5-2.5v-3.2
				C138,144.4,136.9,143.2,135.6,143.2z"/>
		</g>
	</g>
</g>
</svg>
