<svg class="lineElement lineImg" xmlns="http://www.w3.org/2000/svg" viewBox="0 0 212.6 212.6"><defs><style>.cls-siko-1{fill:#7e4a00;}.cls-siko-2{fill:#fff;}</style></defs><g id="Layer_2"><g id="grafika"><path class="cls-siko-1" d="M106.31,0A106.3,106.3,0,1,0,212.6,106.31,106.42,106.42,0,0,0,106.31,0Z"/><path class="cls-siko-2" d="M166,91.84a5,5,0,0,0,2.11-3.79V35.16a2.49,2.49,0,0,0-2.48-2.48H125.72a2.49,2.49,0,0,0-2.48,2.48V57.62a2.5,2.5,0,0,1-2.49,2.49H82.15a2.49,2.49,0,0,0-2.48,2.48V85.05a2.49,2.49,0,0,1-2.48,2.49H39.06A2.48,2.48,0,0,0,36.58,90v79.53c0,1.37,1,1.9,2.12,1.19l8-4.83,4.23-2.6ZM138.71,41.66a2.49,2.49,0,0,1,2.48-2.48h11.45a2.49,2.49,0,0,1,2.48,2.48v22.9A2.49,2.49,0,0,1,152.64,67H141.19a2.49,2.49,0,0,1-2.48-2.48Zm0,29.92a2.49,2.49,0,0,1,2.48-2.48h11.45a2.49,2.49,0,0,1,2.48,2.48v22.9A2.49,2.49,0,0,1,152.64,97H141.19a2.49,2.49,0,0,1-2.48-2.48ZM95.15,69.09a2.49,2.49,0,0,1,2.48-2.48h11.45a2.48,2.48,0,0,1,2.48,2.48V92a2.49,2.49,0,0,1-2.48,2.48H97.63A2.49,2.49,0,0,1,95.15,92Zm0,29.92a2.49,2.49,0,0,1,2.48-2.48h11.45A2.48,2.48,0,0,1,111.56,99v22.9a2.49,2.49,0,0,1-2.48,2.48H97.63a2.49,2.49,0,0,1-2.48-2.48Zm-43.09-2.5A2.49,2.49,0,0,1,54.54,94H66a2.49,2.49,0,0,1,2.48,2.48v22.91A2.49,2.49,0,0,1,66,121.9H54.54a2.49,2.49,0,0,1-2.48-2.48Zm0,29.92A2.49,2.49,0,0,1,54.54,124H66a2.49,2.49,0,0,1,2.48,2.48v22.9A2.49,2.49,0,0,1,66,151.81H54.54a2.48,2.48,0,0,1-2.48-2.48Z"/><path class="cls-siko-2" d="M175.58,94a2.91,2.91,0,0,0-4-.93L40,174.54a2.91,2.91,0,1,0,3.07,4.94l27.38-17a11.67,11.67,0,0,0-.18,1.78,11.38,11.38,0,1,0,14.77-10.81l52.31-32.41c0,.16,0,.3,0,.46a11.38,11.38,0,1,0,16-10.36L174.65,98A2.9,2.9,0,0,0,175.58,94Z"/></g></g></svg>