<svg class="lineElement lineImg" xmlns="http://www.w3.org/2000/svg" viewBox="0 0 212.6 212.6"><defs><style>.cls-tram-1{fill:#ffd500;}.cls-tram-2,.cls-tram-3{fill:#1e1f1f;}.cls-tram-2{fill-rule:evenodd;}</style></defs><g id="Layer_2"><g id="grafika"><path class="cls-tram-1" d="M106.3,0A106.3,106.3,0,1,0,212.6,106.3,106.43,106.43,0,0,0,106.3,0Z"/><path class="cls-tram-2" d="M76.4,164.33a5.92,5.92,0,0,1,4-1.93H83.8a1.4,1.4,0,0,1,1.35,2.21l-8.28,16.11a4.46,4.46,0,0,1-3.62,2.21H63.79c-1.36,0-1.78-.87-.92-1.93Z"/><path class="cls-tram-2" d="M136.22,164.33a5.88,5.88,0,0,0-4-1.93H128.8a1.4,1.4,0,0,0-1.35,2.21l8.28,16.11a4.45,4.45,0,0,0,3.61,2.21h9.47c1.36,0,1.78-.87.92-1.93Z"/><path class="cls-tram-3" d="M137.25,60.87H109.53V55.2A2.49,2.49,0,0,1,112,52.72h7.59a4.1,4.1,0,0,0,3.47-2.27l5.49-12.69A4.11,4.11,0,0,1,132,35.48h1.63A2.48,2.48,0,0,0,136.13,33v-.85a2.49,2.49,0,0,0-2.48-2.48H79.6a2.49,2.49,0,0,0-2.48,2.48V33a2.48,2.48,0,0,0,2.48,2.48h.82a4.11,4.11,0,0,1,3.47,2.28l5.48,12.69a4.09,4.09,0,0,0,3.46,2.27h8.41a2.49,2.49,0,0,1,2.48,2.48v5.67H76c-6.52,0-11.78,6-11.78,13.31v71c0,7.35,5.26,13.33,11.78,13.33h61.24c6.49,0,11.77-6,11.77-13.33v-71C149,66.83,143.74,60.87,137.25,60.87Zm-40.85-14A4,4,0,0,1,93,44.62l-2.83-6.85a1.54,1.54,0,0,1,1.53-2.29h29.1a1.54,1.54,0,0,1,1.53,2.29l-2.83,6.85A4,4,0,0,1,116,46.91ZM87.28,66.53h37.39a3.27,3.27,0,1,1,0,6.54H87.28a3.27,3.27,0,1,1,0-6.54ZM74.92,129.22a5.18,5.18,0,1,1,5.16,5.57A5.36,5.36,0,0,1,74.92,129.22Zm53.18,16.55c-12.75,2.74-31.08,2.74-43.83,0-4.61-1-8-3.33-7.63-4.65,0-.08.19-.11.23-.18.5-1.24,3.86-2.19,7.95-2.19h42.74c4.07,0,7.44,1,7.94,2.19.05.07.2.1.22.18C136.09,142.44,132.71,144.78,128.1,145.77Zm4.19-11a5.58,5.58,0,1,1,5.16-5.57A5.37,5.37,0,0,1,132.29,134.79Zm8.5-25a4,4,0,0,1-4,4h-61a4,4,0,0,1-4-4V82.55a4,4,0,0,1,4-4h61.05a4,4,0,0,1,4,4Z"/></g></g></svg>