<svg class="lineElement lineImg" xmlns="http://www.w3.org/2000/svg" viewBox="0 0 212.59 212.59"><defs><style>.cls-trolley-1{fill:#e5231b;}.cls-trolley-2{fill:#fff;}</style></defs><g id="Layer_2"><g id="grafika"><path class="cls-trolley-1" d="M106.3,0A106.3,106.3,0,1,0,212.59,106.31,106.41,106.41,0,0,0,106.3,0Z"/><path class="cls-trolley-2" d="M150,70.17H122.19l37.7-37.75c1.07-1.05.15-2.55-.91-3.6a2.71,2.71,0,0,0-3.82-.21L113.44,70.17H92.52L137,25.7c1.06-1.06.14-2.56-.93-3.61a2.69,2.69,0,0,0-3.8-.21L83.8,70.17H62.12a9.75,9.75,0,0,0-9.89,9.6v85a9.75,9.75,0,0,0,9.89,9.58h3.56v8.83a2.39,2.39,0,0,0,2.38,2.38H75.9a2.38,2.38,0,0,0,2.37-2.38v-8.83h55.84v8.83a2.38,2.38,0,0,0,2.37,2.38h7.84a2.39,2.39,0,0,0,2.38-2.38v-8.83H150a9.75,9.75,0,0,0,9.92-9.58v-85A9.76,9.76,0,0,0,150,70.17ZM61.9,81.86a3.16,3.16,0,0,1,3.15-3.15H147a3.16,3.16,0,0,1,3.15,3.15v3.49A3.16,3.16,0,0,1,147,88.5H65.05a3.16,3.16,0,0,1-3.15-3.15Zm26,85.76H65.13A3.17,3.17,0,0,1,62,164.46v-5.73a3.16,3.16,0,0,1,3.15-3.16H82.43a5.34,5.34,0,0,1,4.46,2.87l2.88,6.31A1.88,1.88,0,0,1,87.92,167.62Zm13.69-22.84H68.48a6.33,6.33,0,0,1-6.45-6.2v-37a6.33,6.33,0,0,1,6.45-6.2h33.13Zm9.38,0V95.4h32.69a6.34,6.34,0,0,1,6.46,6.2v37a6.33,6.33,0,0,1-6.46,6.2H111Zm39.28,19.68a3.17,3.17,0,0,1-3.16,3.16h-22.8a1.88,1.88,0,0,1-1.84-2.87l2.87-6.31a5.35,5.35,0,0,1,4.46-2.87h17.32a3.16,3.16,0,0,1,3.15,3.16Z"/></g></g></svg>